<?xml version="1.0" encoding="UTF-8" standalone="no"?>
<!DOCTYPE svg PUBLIC "-//W3C//DTD SVG 1.1//EN"
 "http://www.w3.org/Graphics/SVG/1.1/DTD/svg11.dtd">
<!-- Generated by graphviz version 14.1.5 (20260411.2331)
 -->
<!-- Title: Figure_1_1_Pipeline Pages: 1 -->
<svg width="1125pt" height="44pt"
 viewBox="0.00 0.00 1125.00 44.00" xmlns="http://www.w3.org/2000/svg" xmlns:xlink="http://www.w3.org/1999/xlink">
<g id="graph0" class="graph" transform="scale(1 1) rotate(0) translate(4 40)">
<title>Figure_1_1_Pipeline</title>
<polygon fill="white" stroke="none" points="-4,4 -4,-40 1121,-40 1121,4 -4,4"/>
<!-- A -->
<g id="node1" class="node">
<title>A</title>
<path fill="none" stroke="black" d="M143.5,-36C143.5,-36 12,-36 12,-36 6,-36 0,-30 0,-24 0,-24 0,-12 0,-12 0,-6 6,0 12,0 12,0 143.5,0 143.5,0 149.5,0 155.5,-6 155.5,-12 155.5,-12 155.5,-24 155.5,-24 155.5,-30 149.5,-36 143.5,-36"/>
<text xml:space="preserve" text-anchor="middle" x="77.75" y="-14.5" font-family="Arial" font-size="10.00">Cross&#45;source listening evidence</text>
</g>
<!-- B -->
<g id="node2" class="node">
<title>B</title>
<path fill="none" stroke="black" d="M347.75,-36C347.75,-36 203.5,-36 203.5,-36 197.5,-36 191.5,-30 191.5,-24 191.5,-24 191.5,-12 191.5,-12 191.5,-6 197.5,0 203.5,0 203.5,0 347.75,0 347.75,0 353.75,0 359.75,-6 359.75,-12 359.75,-12 359.75,-24 359.75,-24 359.75,-30 353.75,-36 347.75,-36"/>
<text xml:space="preserve" text-anchor="middle" x="275.62" y="-14.5" font-family="Arial" font-size="10.00">Alignment and uncertainty handling</text>
</g>
<!-- A&#45;&gt;B -->
<g id="edge1" class="edge">
<title>A&#45;&gt;B</title>
<path fill="none" stroke="black" d="M155.88,-18C163.74,-18 171.79,-18 179.81,-18"/>
<polygon fill="black" stroke="black" points="179.59,-21.5 189.59,-18 179.59,-14.5 179.59,-21.5"/>
</g>
<!-- C -->
<g id="node3" class="node">
<title>C</title>
<path fill="none" stroke="black" d="M483.75,-36C483.75,-36 407.75,-36 407.75,-36 401.75,-36 395.75,-30 395.75,-24 395.75,-24 395.75,-12 395.75,-12 395.75,-6 401.75,0 407.75,0 407.75,0 483.75,0 483.75,0 489.75,0 495.75,-6 495.75,-12 495.75,-12 495.75,-24 495.75,-24 495.75,-30 489.75,-36 483.75,-36"/>
<text xml:space="preserve" text-anchor="middle" x="445.75" y="-14.5" font-family="Arial" font-size="10.00">Preference profiling</text>
</g>
<!-- B&#45;&gt;C -->
<g id="edge2" class="edge">
<title>B&#45;&gt;C</title>
<path fill="none" stroke="black" d="M360.19,-18C368.19,-18 376.18,-18 383.89,-18"/>
<polygon fill="black" stroke="black" points="383.83,-21.5 393.83,-18 383.83,-14.5 383.83,-21.5"/>
</g>
<!-- D -->
<g id="node4" class="node">
<title>D</title>
<path fill="none" stroke="black" d="M616.75,-36C616.75,-36 543.75,-36 543.75,-36 537.75,-36 531.75,-30 531.75,-24 531.75,-24 531.75,-12 531.75,-12 531.75,-6 537.75,0 543.75,0 543.75,0 616.75,0 616.75,0 622.75,0 628.75,-6 628.75,-12 628.75,-12 628.75,-24 628.75,-24 628.75,-30 622.75,-36 616.75,-36"/>
<text xml:space="preserve" text-anchor="middle" x="580.25" y="-14.5" font-family="Arial" font-size="10.00">Candidate shaping</text>
</g>
<!-- C&#45;&gt;D -->
<g id="edge3" class="edge">
<title>C&#45;&gt;D</title>
<path fill="none" stroke="black" d="M496.09,-18C503.99,-18 512.24,-18 520.33,-18"/>
<polygon fill="black" stroke="black" points="520.12,-21.5 530.12,-18 520.12,-14.5 520.12,-21.5"/>
</g>
<!-- E -->
<g id="node5" class="node">
<title>E</title>
<path fill="none" stroke="black" d="M761,-36C761,-36 676.75,-36 676.75,-36 670.75,-36 664.75,-30 664.75,-24 664.75,-24 664.75,-12 664.75,-12 664.75,-6 670.75,0 676.75,0 676.75,0 761,0 761,0 767,0 773,-6 773,-12 773,-12 773,-24 773,-24 773,-30 767,-36 761,-36"/>
<text xml:space="preserve" text-anchor="middle" x="718.88" y="-14.5" font-family="Arial" font-size="10.00">Deterministic scoring</text>
</g>
<!-- D&#45;&gt;E -->
<g id="edge4" class="edge">
<title>D&#45;&gt;E</title>
<path fill="none" stroke="black" d="M629.03,-18C636.78,-18 644.9,-18 652.97,-18"/>
<polygon fill="black" stroke="black" points="652.77,-21.5 662.77,-18 652.77,-14.5 652.77,-21.5"/>
</g>
<!-- F -->
<g id="node6" class="node">
<title>F</title>
<path fill="none" stroke="black" d="M890.25,-36C890.25,-36 821,-36 821,-36 815,-36 809,-30 809,-24 809,-24 809,-12 809,-12 809,-6 815,0 821,0 821,0 890.25,0 890.25,0 896.25,0 902.25,-6 902.25,-12 902.25,-12 902.25,-24 902.25,-24 902.25,-30 896.25,-36 890.25,-36"/>
<text xml:space="preserve" text-anchor="middle" x="855.62" y="-14.5" font-family="Arial" font-size="10.00">Playlist assembly</text>
</g>
<!-- E&#45;&gt;F -->
<g id="edge5" class="edge">
<title>E&#45;&gt;F</title>
<path fill="none" stroke="black" d="M773.13,-18C781.13,-18 789.41,-18 797.49,-18"/>
<polygon fill="black" stroke="black" points="797.21,-21.5 807.21,-18 797.21,-14.5 797.21,-21.5"/>
</g>
<!-- G -->
<g id="node7" class="node">
<title>G</title>
<path fill="none" stroke="black" d="M1105,-36C1105,-36 950.25,-36 950.25,-36 944.25,-36 938.25,-30 938.25,-24 938.25,-24 938.25,-12 938.25,-12 938.25,-6 944.25,0 950.25,0 950.25,0 1105,0 1105,0 1111,0 1117,-6 1117,-12 1117,-12 1117,-24 1117,-24 1117,-30 1111,-36 1105,-36"/>
<text xml:space="preserve" text-anchor="middle" x="1027.62" y="-14.5" font-family="Arial" font-size="10.00">Explanation and observability outputs</text>
</g>
<!-- F&#45;&gt;G -->
<g id="edge6" class="edge">
<title>F&#45;&gt;G</title>
<path fill="none" stroke="black" d="M902.63,-18C910.2,-18 918.3,-18 926.6,-18"/>
<polygon fill="black" stroke="black" points="926.49,-21.5 936.49,-18 926.49,-14.5 926.49,-21.5"/>
</g>
</g>
</svg>
