<?xml version="1.0" encoding="UTF-8" standalone="no"?>
<!DOCTYPE svg PUBLIC "-//W3C//DTD SVG 1.1//EN"
 "http://www.w3.org/Graphics/SVG/1.1/DTD/svg11.dtd">
<!-- Generated by graphviz version 14.1.5 (20260411.2331)
 -->
<!-- Title: Figure_2_2_Uncertainty_Stages Pages: 1 -->
<svg width="355pt" height="476pt"
 viewBox="0.00 0.00 355.00 476.00" xmlns="http://www.w3.org/2000/svg" xmlns:xlink="http://www.w3.org/1999/xlink">
<g id="graph0" class="graph" transform="scale(1 1) rotate(0) translate(4 472)">
<title>Figure_2_2_Uncertainty_Stages</title>
<polygon fill="white" stroke="none" points="-4,4 -4,-472 350.75,-472 350.75,4 -4,4"/>
<!-- A -->
<g id="node1" class="node">
<title>A</title>
<path fill="none" stroke="black" d="M316.75,-468C316.75,-468 30,-468 30,-468 24,-468 18,-462 18,-456 18,-456 18,-444 18,-444 18,-438 24,-432 30,-432 30,-432 316.75,-432 316.75,-432 322.75,-432 328.75,-438 328.75,-444 328.75,-444 328.75,-456 328.75,-456 328.75,-462 322.75,-468 316.75,-468"/>
<text xml:space="preserve" text-anchor="middle" x="173.38" y="-452.5" font-family="Arial" font-size="10.00">Interaction Evidence</text>
<text xml:space="preserve" text-anchor="middle" x="173.38" y="-440.5" font-family="Arial" font-size="10.00">Implicit behaviour may reflect convenience, exposure, or preference</text>
</g>
<!-- B -->
<g id="node2" class="node">
<title>B</title>
<path fill="none" stroke="black" d="M334.75,-396C334.75,-396 12,-396 12,-396 6,-396 0,-390 0,-384 0,-384 0,-372 0,-372 0,-366 6,-360 12,-360 12,-360 334.75,-360 334.75,-360 340.75,-360 346.75,-366 346.75,-372 346.75,-372 346.75,-384 346.75,-384 346.75,-390 340.75,-396 334.75,-396"/>
<text xml:space="preserve" text-anchor="middle" x="173.38" y="-380.5" font-family="Arial" font-size="10.00">Profile Construction</text>
<text xml:space="preserve" text-anchor="middle" x="173.38" y="-368.5" font-family="Arial" font-size="10.00">Recency, weighting, and alignment assumptions shape preference evidence</text>
</g>
<!-- A&#45;&gt;B -->
<g id="edge1" class="edge">
<title>A&#45;&gt;B</title>
<path fill="none" stroke="black" d="M173.38,-431.7C173.38,-424.41 173.38,-415.73 173.38,-407.54"/>
<polygon fill="black" stroke="black" points="176.88,-407.62 173.38,-397.62 169.88,-407.62 176.88,-407.62"/>
</g>
<!-- C -->
<g id="node3" class="node">
<title>C</title>
<path fill="none" stroke="black" d="M290.88,-324C290.88,-324 55.88,-324 55.88,-324 49.88,-324 43.88,-318 43.88,-312 43.88,-312 43.88,-300 43.88,-300 43.88,-294 49.88,-288 55.88,-288 55.88,-288 290.88,-288 290.88,-288 296.88,-288 302.88,-294 302.88,-300 302.88,-300 302.88,-312 302.88,-312 302.88,-318 296.88,-324 290.88,-324"/>
<text xml:space="preserve" text-anchor="middle" x="173.38" y="-308.5" font-family="Arial" font-size="10.00">Candidate Generation</text>
<text xml:space="preserve" text-anchor="middle" x="173.38" y="-296.5" font-family="Arial" font-size="10.00">Thresholds and filtering alter which items can be ranked</text>
</g>
<!-- B&#45;&gt;C -->
<g id="edge2" class="edge">
<title>B&#45;&gt;C</title>
<path fill="none" stroke="black" d="M173.38,-359.7C173.38,-352.41 173.38,-343.73 173.38,-335.54"/>
<polygon fill="black" stroke="black" points="176.88,-335.62 173.38,-325.62 169.88,-335.62 176.88,-335.62"/>
</g>
<!-- D -->
<g id="node4" class="node">
<title>D</title>
<path fill="none" stroke="black" d="M309.25,-252C309.25,-252 37.5,-252 37.5,-252 31.5,-252 25.5,-246 25.5,-240 25.5,-240 25.5,-228 25.5,-228 25.5,-222 31.5,-216 37.5,-216 37.5,-216 309.25,-216 309.25,-216 315.25,-216 321.25,-222 321.25,-228 321.25,-228 321.25,-240 321.25,-240 321.25,-246 315.25,-252 309.25,-252"/>
<text xml:space="preserve" text-anchor="middle" x="173.38" y="-236.5" font-family="Arial" font-size="10.00">Scoring and Ranking</text>
<text xml:space="preserve" text-anchor="middle" x="173.38" y="-224.5" font-family="Arial" font-size="10.00">Metric choice and normalization reshape neighborhood geometry</text>
</g>
<!-- C&#45;&gt;D -->
<g id="edge3" class="edge">
<title>C&#45;&gt;D</title>
<path fill="none" stroke="black" d="M173.38,-287.7C173.38,-280.41 173.38,-271.73 173.38,-263.54"/>
<polygon fill="black" stroke="black" points="176.88,-263.62 173.38,-253.62 169.88,-263.62 176.88,-263.62"/>
</g>
<!-- E -->
<g id="node5" class="node">
<title>E</title>
<path fill="none" stroke="black" d="M314.12,-180C314.12,-180 32.62,-180 32.62,-180 26.62,-180 20.62,-174 20.62,-168 20.62,-168 20.62,-156 20.62,-156 20.62,-150 26.62,-144 32.62,-144 32.62,-144 314.12,-144 314.12,-144 320.12,-144 326.12,-150 326.12,-156 326.12,-156 326.12,-168 326.12,-168 326.12,-174 320.12,-180 314.12,-180"/>
<text xml:space="preserve" text-anchor="middle" x="173.38" y="-164.5" font-family="Arial" font-size="10.00">Playlist Assembly</text>
<text xml:space="preserve" text-anchor="middle" x="173.38" y="-152.5" font-family="Arial" font-size="10.00">Coherence, diversity, novelty, and ordering objectives can interfere</text>
</g>
<!-- D&#45;&gt;E -->
<g id="edge4" class="edge">
<title>D&#45;&gt;E</title>
<path fill="none" stroke="black" d="M173.38,-215.7C173.38,-208.41 173.38,-199.73 173.38,-191.54"/>
<polygon fill="black" stroke="black" points="176.88,-191.62 173.38,-181.62 169.88,-191.62 176.88,-191.62"/>
</g>
<!-- F -->
<g id="node6" class="node">
<title>F</title>
<path fill="none" stroke="black" d="M310,-108C310,-108 36.75,-108 36.75,-108 30.75,-108 24.75,-102 24.75,-96 24.75,-96 24.75,-84 24.75,-84 24.75,-78 30.75,-72 36.75,-72 36.75,-72 310,-72 310,-72 316,-72 322,-78 322,-84 322,-84 322,-96 322,-96 322,-102 316,-108 310,-108"/>
<text xml:space="preserve" text-anchor="middle" x="173.38" y="-92.5" font-family="Arial" font-size="10.00">Explanation Layer</text>
<text xml:space="preserve" text-anchor="middle" x="173.38" y="-80.5" font-family="Arial" font-size="10.00">Persuasive narratives may diverge from mechanism&#45;level fidelity</text>
</g>
<!-- E&#45;&gt;F -->
<g id="edge5" class="edge">
<title>E&#45;&gt;F</title>
<path fill="none" stroke="black" d="M173.38,-143.7C173.38,-136.41 173.38,-127.73 173.38,-119.54"/>
<polygon fill="black" stroke="black" points="176.88,-119.62 173.38,-109.62 169.88,-119.62 176.88,-119.62"/>
</g>
<!-- G -->
<g id="node7" class="node">
<title>G</title>
<path fill="none" stroke="black" d="M296.12,-36C296.12,-36 50.62,-36 50.62,-36 44.62,-36 38.62,-30 38.62,-24 38.62,-24 38.62,-12 38.62,-12 38.62,-6 44.62,0 50.62,0 50.62,0 296.12,0 296.12,0 302.12,0 308.12,-6 308.12,-12 308.12,-12 308.12,-24 308.12,-24 308.12,-30 302.12,-36 296.12,-36"/>
<text xml:space="preserve" text-anchor="middle" x="173.38" y="-20.5" font-family="Arial" font-size="10.00">Observability and Reproducibility</text>
<text xml:space="preserve" text-anchor="middle" x="173.38" y="-8.5" font-family="Arial" font-size="10.00">Process&#45;level traceability is needed across all prior stages</text>
</g>
<!-- F&#45;&gt;G -->
<g id="edge6" class="edge">
<title>F&#45;&gt;G</title>
<path fill="none" stroke="black" d="M173.38,-71.7C173.38,-64.41 173.38,-55.73 173.38,-47.54"/>
<polygon fill="black" stroke="black" points="176.88,-47.62 173.38,-37.62 169.88,-47.62 176.88,-47.62"/>
</g>
</g>
</svg>
