<?xml version="1.0" encoding="UTF-8" standalone="no"?>
<!DOCTYPE svg PUBLIC "-//W3C//DTD SVG 1.1//EN"
 "http://www.w3.org/Graphics/SVG/1.1/DTD/svg11.dtd">
<!-- Generated by graphviz version 14.1.5 (20260411.2331)
 -->
<!-- Title: Figure_3_1_Architecture Pages: 1 -->
<svg width="1740pt" height="224pt"
 viewBox="0.00 0.00 1740.00 224.00" xmlns="http://www.w3.org/2000/svg" xmlns:xlink="http://www.w3.org/1999/xlink">
<g id="graph0" class="graph" transform="scale(1 1) rotate(0) translate(4 220)">
<title>Figure_3_1_Architecture</title>
<polygon fill="white" stroke="none" points="-4,4 -4,-220 1735.5,-220 1735.5,4 -4,4"/>
<!-- A -->
<g id="node1" class="node">
<title>A</title>
<path fill="none" stroke="black" d="M222.25,-41C222.25,-41 12,-41 12,-41 6,-41 0,-35 0,-29 0,-29 0,-17 0,-17 0,-11 6,-5 12,-5 12,-5 222.25,-5 222.25,-5 228.25,-5 234.25,-11 234.25,-17 234.25,-17 234.25,-29 234.25,-29 234.25,-35 228.25,-41 222.25,-41"/>
<text xml:space="preserve" text-anchor="middle" x="117.12" y="-25.5" font-family="Arial" font-size="10.00">User interaction</text>
<text xml:space="preserve" text-anchor="middle" x="117.12" y="-13.5" font-family="Arial" font-size="10.00">Listening&#45;history export + optional influence inputs</text>
</g>
<!-- B -->
<g id="node2" class="node">
<title>B</title>
<path fill="none" stroke="black" d="M479.75,-41C479.75,-41 282.25,-41 282.25,-41 276.25,-41 270.25,-35 270.25,-29 270.25,-29 270.25,-17 270.25,-17 270.25,-11 276.25,-5 282.25,-5 282.25,-5 479.75,-5 479.75,-5 485.75,-5 491.75,-11 491.75,-17 491.75,-17 491.75,-29 491.75,-29 491.75,-35 485.75,-41 479.75,-41"/>
<text xml:space="preserve" text-anchor="middle" x="381" y="-25.5" font-family="Arial" font-size="10.00">Cross&#45;source alignment</text>
<text xml:space="preserve" text-anchor="middle" x="381" y="-13.5" font-family="Arial" font-size="10.00">Matched, ambiguous, and unmatched evidence</text>
</g>
<!-- A&#45;&gt;B -->
<g id="edge1" class="edge">
<title>A&#45;&gt;B</title>
<path fill="none" stroke="black" d="M234.51,-23C242.5,-23 250.55,-23 258.57,-23"/>
<polygon fill="black" stroke="black" points="258.33,-26.5 268.33,-23 258.33,-19.5 258.33,-26.5"/>
</g>
<!-- C -->
<g id="node3" class="node">
<title>C</title>
<path fill="none" stroke="black" d="M660.75,-64C660.75,-64 539.75,-64 539.75,-64 533.75,-64 527.75,-58 527.75,-52 527.75,-52 527.75,-40 527.75,-40 527.75,-34 533.75,-28 539.75,-28 539.75,-28 660.75,-28 660.75,-28 666.75,-28 672.75,-34 672.75,-40 672.75,-40 672.75,-52 672.75,-52 672.75,-58 666.75,-64 660.75,-64"/>
<text xml:space="preserve" text-anchor="middle" x="600.25" y="-48.5" font-family="Arial" font-size="10.00">Preference profiling</text>
<text xml:space="preserve" text-anchor="middle" x="600.25" y="-36.5" font-family="Arial" font-size="10.00">Profile summary + seed trace</text>
</g>
<!-- B&#45;&gt;C -->
<g id="edge2" class="edge">
<title>B&#45;&gt;C</title>
<path fill="none" stroke="black" d="M492.22,-34.67C500.26,-35.52 508.29,-36.37 516.14,-37.2"/>
<polygon fill="black" stroke="black" points="515.66,-40.67 525.97,-38.24 516.4,-33.71 515.66,-40.67"/>
</g>
<!-- H -->
<g id="node8" class="node">
<title>H</title>
<path fill="none" stroke="black" d="M1719.5,-113C1719.5,-113 1589.5,-113 1589.5,-113 1583.5,-113 1577.5,-107 1577.5,-101 1577.5,-101 1577.5,-89 1577.5,-89 1577.5,-83 1583.5,-77 1589.5,-77 1589.5,-77 1719.5,-77 1719.5,-77 1725.5,-77 1731.5,-83 1731.5,-89 1731.5,-89 1731.5,-101 1731.5,-101 1731.5,-107 1725.5,-113 1719.5,-113"/>
<text xml:space="preserve" text-anchor="middle" x="1654.5" y="-97.5" font-family="Arial" font-size="10.00">Run&#45;level observability</text>
<text xml:space="preserve" text-anchor="middle" x="1654.5" y="-85.5" font-family="Arial" font-size="10.00">Config snapshot + evidence log</text>
</g>
<!-- B&#45;&gt;H -->
<g id="edge7" class="edge">
<title>B&#45;&gt;H</title>
<path fill="none" stroke="black" d="M491.93,-13.94C579.51,-7.51 705.28,0 815.5,0 815.5,0 815.5,0 1238.75,0 1374.47,0 1411.6,-0.68 1541.5,-40 1566.15,-47.46 1592.07,-59.86 1612.75,-71"/>
<polygon fill="black" stroke="black" points="1610.99,-74.02 1621.43,-75.77 1614.36,-67.88 1610.99,-74.02"/>
</g>
<!-- D -->
<g id="node4" class="node">
<title>D</title>
<path fill="none" stroke="black" d="M912.25,-102C912.25,-102 720.75,-102 720.75,-102 714.75,-102 708.75,-96 708.75,-90 708.75,-90 708.75,-78 708.75,-78 708.75,-72 714.75,-66 720.75,-66 720.75,-66 912.25,-66 912.25,-66 918.25,-66 924.25,-72 924.25,-78 924.25,-78 924.25,-90 924.25,-90 924.25,-96 918.25,-102 912.25,-102"/>
<text xml:space="preserve" text-anchor="middle" x="816.5" y="-86.5" font-family="Arial" font-size="10.00">Candidate shaping</text>
<text xml:space="preserve" text-anchor="middle" x="816.5" y="-74.5" font-family="Arial" font-size="10.00">Filtered candidate set + exclusion diagnostics</text>
</g>
<!-- C&#45;&gt;D -->
<g id="edge3" class="edge">
<title>C&#45;&gt;D</title>
<path fill="none" stroke="black" d="M673.19,-58.76C681.92,-60.31 691,-61.92 700.16,-63.54"/>
<polygon fill="black" stroke="black" points="699.4,-66.96 709.86,-65.26 700.63,-60.07 699.4,-66.96"/>
</g>
<!-- C&#45;&gt;H -->
<g id="edge8" class="edge">
<title>C&#45;&gt;H</title>
<path fill="none" stroke="black" d="M673.18,-43.89C760.22,-41.52 911.21,-38 1040.75,-38 1040.75,-38 1040.75,-38 1238.75,-38 1352.54,-38 1482.26,-59.32 1565.88,-75.88"/>
<polygon fill="black" stroke="black" points="1565.13,-79.3 1575.62,-77.83 1566.51,-72.44 1565.13,-79.3"/>
</g>
<!-- E -->
<g id="node5" class="node">
<title>E</title>
<path fill="none" stroke="black" d="M1111.25,-140C1111.25,-140 972.25,-140 972.25,-140 966.25,-140 960.25,-134 960.25,-128 960.25,-128 960.25,-116 960.25,-116 960.25,-110 966.25,-104 972.25,-104 972.25,-104 1111.25,-104 1111.25,-104 1117.25,-104 1123.25,-110 1123.25,-116 1123.25,-116 1123.25,-128 1123.25,-128 1123.25,-134 1117.25,-140 1111.25,-140"/>
<text xml:space="preserve" text-anchor="middle" x="1041.75" y="-124.5" font-family="Arial" font-size="10.00">Deterministic scoring</text>
<text xml:space="preserve" text-anchor="middle" x="1041.75" y="-112.5" font-family="Arial" font-size="10.00">Score traces + ranked candidates</text>
</g>
<!-- D&#45;&gt;E -->
<g id="edge4" class="edge">
<title>D&#45;&gt;E</title>
<path fill="none" stroke="black" d="M924.55,-102.22C932.61,-103.59 940.7,-104.97 948.66,-106.33"/>
<polygon fill="black" stroke="black" points="947.87,-109.74 958.31,-107.97 949.04,-102.84 947.87,-109.74"/>
</g>
<!-- D&#45;&gt;H -->
<g id="edge9" class="edge">
<title>D&#45;&gt;H</title>
<path fill="none" stroke="black" d="M924.65,-85.41C1091.86,-87.61 1411.62,-91.82 1565.93,-93.85"/>
<polygon fill="black" stroke="black" points="1565.64,-97.34 1575.68,-93.98 1565.73,-90.34 1565.64,-97.34"/>
</g>
<!-- F -->
<g id="node6" class="node">
<title>F</title>
<path fill="none" stroke="black" d="M1304.25,-178C1304.25,-178 1171.25,-178 1171.25,-178 1165.25,-178 1159.25,-172 1159.25,-166 1159.25,-166 1159.25,-154 1159.25,-154 1159.25,-148 1165.25,-142 1171.25,-142 1171.25,-142 1304.25,-142 1304.25,-142 1310.25,-142 1316.25,-148 1316.25,-154 1316.25,-154 1316.25,-166 1316.25,-166 1316.25,-172 1310.25,-178 1304.25,-178"/>
<text xml:space="preserve" text-anchor="middle" x="1237.75" y="-162.5" font-family="Arial" font-size="10.00">Playlist assembly</text>
<text xml:space="preserve" text-anchor="middle" x="1237.75" y="-150.5" font-family="Arial" font-size="10.00">Playlist output + assembly trace</text>
</g>
<!-- E&#45;&gt;F -->
<g id="edge5" class="edge">
<title>E&#45;&gt;F</title>
<path fill="none" stroke="black" d="M1123.62,-137.84C1131.53,-139.39 1139.6,-140.97 1147.59,-142.53"/>
<polygon fill="black" stroke="black" points="1146.84,-145.96 1157.33,-144.44 1148.19,-139.09 1146.84,-145.96"/>
</g>
<!-- E&#45;&gt;H -->
<g id="edge10" class="edge">
<title>E&#45;&gt;H</title>
<path fill="none" stroke="black" d="M1123.54,-118.43C1238.33,-113.35 1447.81,-104.09 1566.11,-98.86"/>
<polygon fill="black" stroke="black" points="1565.92,-102.38 1575.76,-98.44 1565.61,-95.38 1565.92,-102.38"/>
</g>
<!-- G -->
<g id="node7" class="node">
<title>G</title>
<path fill="none" stroke="black" d="M1529.5,-216C1529.5,-216 1364.25,-216 1364.25,-216 1358.25,-216 1352.25,-210 1352.25,-204 1352.25,-204 1352.25,-192 1352.25,-192 1352.25,-186 1358.25,-180 1364.25,-180 1364.25,-180 1529.5,-180 1529.5,-180 1535.5,-180 1541.5,-186 1541.5,-192 1541.5,-192 1541.5,-204 1541.5,-204 1541.5,-210 1535.5,-216 1529.5,-216"/>
<text xml:space="preserve" text-anchor="middle" x="1446.88" y="-200.5" font-family="Arial" font-size="10.00">Explanation layer</text>
<text xml:space="preserve" text-anchor="middle" x="1446.88" y="-188.5" font-family="Arial" font-size="10.00">Mechanism&#45;linked explanation payloads</text>
</g>
<!-- F&#45;&gt;G -->
<g id="edge6" class="edge">
<title>F&#45;&gt;G</title>
<path fill="none" stroke="black" d="M1316.46,-174.26C1324.44,-175.72 1332.62,-177.22 1340.83,-178.73"/>
<polygon fill="black" stroke="black" points="1340.04,-182.14 1350.51,-180.5 1341.31,-175.26 1340.04,-182.14"/>
</g>
<!-- F&#45;&gt;H -->
<g id="edge11" class="edge">
<title>F&#45;&gt;H</title>
<path fill="none" stroke="black" d="M1316.48,-155.67C1377.98,-151.32 1465.81,-143.02 1541.5,-128 1556.54,-125.02 1572.47,-120.91 1587.45,-116.61"/>
<polygon fill="black" stroke="black" points="1588.11,-120.07 1596.71,-113.89 1586.13,-113.35 1588.11,-120.07"/>
</g>
<!-- G&#45;&gt;H -->
<g id="edge12" class="edge">
<title>G&#45;&gt;H</title>
<path fill="none" stroke="black" d="M1508.65,-179.57C1519.76,-175.54 1531.12,-170.98 1541.5,-166 1568.68,-152.96 1597.36,-134.69 1618.89,-119.94"/>
<polygon fill="black" stroke="black" points="1620.79,-122.89 1627.01,-114.31 1616.8,-117.14 1620.79,-122.89"/>
</g>
</g>
</svg>
