<?xml version="1.0" encoding="UTF-8" standalone="no"?>
<!DOCTYPE svg PUBLIC "-//W3C//DTD SVG 1.1//EN"
 "http://www.w3.org/Graphics/SVG/1.1/DTD/svg11.dtd">
<!-- Generated by graphviz version 14.1.5 (20260411.2331)
 -->
<!-- Title: Figure_3_3_Scoring_Assembly Pages: 1 -->
<svg width="336pt" height="863pt"
 viewBox="0.00 0.00 336.00 863.00" xmlns="http://www.w3.org/2000/svg" xmlns:xlink="http://www.w3.org/1999/xlink">
<g id="graph0" class="graph" transform="scale(1 1) rotate(0) translate(4 858.5)">
<title>Figure_3_3_Scoring_Assembly</title>
<polygon fill="white" stroke="none" points="-4,4 -4,-858.5 332.12,-858.5 332.12,4 -4,4"/>
<!-- A -->
<g id="node1" class="node">
<title>A</title>
<path fill="none" stroke="black" d="M170.62,-854.5C170.62,-854.5 102.12,-854.5 102.12,-854.5 96.12,-854.5 90.12,-848.5 90.12,-842.5 90.12,-842.5 90.12,-830.5 90.12,-830.5 90.12,-824.5 96.12,-818.5 102.12,-818.5 102.12,-818.5 170.62,-818.5 170.62,-818.5 176.62,-818.5 182.62,-824.5 182.62,-830.5 182.62,-830.5 182.62,-842.5 182.62,-842.5 182.62,-848.5 176.62,-854.5 170.62,-854.5"/>
<text xml:space="preserve" text-anchor="middle" x="136.38" y="-833" font-family="Arial" font-size="10.00">Preference profile</text>
</g>
<!-- B -->
<g id="node2" class="node">
<title>B</title>
<path fill="none" stroke="black" d="M172.88,-781.5C172.88,-781.5 99.88,-781.5 99.88,-781.5 93.88,-781.5 87.88,-775.5 87.88,-769.5 87.88,-769.5 87.88,-757.5 87.88,-757.5 87.88,-751.5 93.88,-745.5 99.88,-745.5 99.88,-745.5 172.88,-745.5 172.88,-745.5 178.88,-745.5 184.88,-751.5 184.88,-757.5 184.88,-757.5 184.88,-769.5 184.88,-769.5 184.88,-775.5 178.88,-781.5 172.88,-781.5"/>
<text xml:space="preserve" text-anchor="middle" x="136.38" y="-760" font-family="Arial" font-size="10.00">Candidate shaping</text>
</g>
<!-- A&#45;&gt;B -->
<g id="edge1" class="edge">
<title>A&#45;&gt;B</title>
<path fill="none" stroke="black" d="M136.38,-818.31C136.38,-810.73 136.38,-801.6 136.38,-793.04"/>
<polygon fill="black" stroke="black" points="139.88,-793.04 136.38,-783.04 132.88,-793.04 139.88,-793.04"/>
</g>
<!-- C -->
<g id="node3" class="node">
<title>C</title>
<path fill="none" stroke="black" d="M174.38,-708.5C174.38,-708.5 98.38,-708.5 98.38,-708.5 92.38,-708.5 86.38,-702.5 86.38,-696.5 86.38,-696.5 86.38,-684.5 86.38,-684.5 86.38,-678.5 92.38,-672.5 98.38,-672.5 98.38,-672.5 174.38,-672.5 174.38,-672.5 180.38,-672.5 186.38,-678.5 186.38,-684.5 186.38,-684.5 186.38,-696.5 186.38,-696.5 186.38,-702.5 180.38,-708.5 174.38,-708.5"/>
<text xml:space="preserve" text-anchor="middle" x="136.38" y="-687" font-family="Arial" font-size="10.00">Feature preparation</text>
</g>
<!-- B&#45;&gt;C -->
<g id="edge2" class="edge">
<title>B&#45;&gt;C</title>
<path fill="none" stroke="black" d="M136.38,-745.31C136.38,-737.73 136.38,-728.6 136.38,-720.04"/>
<polygon fill="black" stroke="black" points="139.88,-720.04 136.38,-710.04 132.88,-720.04 139.88,-720.04"/>
</g>
<!-- D -->
<g id="node4" class="node">
<title>D</title>
<path fill="none" stroke="black" d="M181.88,-635.5C181.88,-635.5 90.88,-635.5 90.88,-635.5 84.88,-635.5 78.88,-629.5 78.88,-623.5 78.88,-623.5 78.88,-611.5 78.88,-611.5 78.88,-605.5 84.88,-599.5 90.88,-599.5 90.88,-599.5 181.88,-599.5 181.88,-599.5 187.88,-599.5 193.88,-605.5 193.88,-611.5 193.88,-611.5 193.88,-623.5 193.88,-623.5 193.88,-629.5 187.88,-635.5 181.88,-635.5"/>
<text xml:space="preserve" text-anchor="middle" x="136.38" y="-614" font-family="Arial" font-size="10.00">Base similarity scoring</text>
</g>
<!-- C&#45;&gt;D -->
<g id="edge3" class="edge">
<title>C&#45;&gt;D</title>
<path fill="none" stroke="black" d="M136.38,-672.31C136.38,-664.73 136.38,-655.6 136.38,-647.04"/>
<polygon fill="black" stroke="black" points="139.88,-647.04 136.38,-637.04 132.88,-647.04 139.88,-647.04"/>
</g>
<!-- E -->
<g id="node5" class="node">
<title>E</title>
<path fill="none" stroke="black" d="M195.75,-562.5C195.75,-562.5 77,-562.5 77,-562.5 71,-562.5 65,-556.5 65,-550.5 65,-550.5 65,-538.5 65,-538.5 65,-532.5 71,-526.5 77,-526.5 77,-526.5 195.75,-526.5 195.75,-526.5 201.75,-526.5 207.75,-532.5 207.75,-538.5 207.75,-538.5 207.75,-550.5 207.75,-550.5 207.75,-556.5 201.75,-562.5 195.75,-562.5"/>
<text xml:space="preserve" text-anchor="middle" x="136.38" y="-541" font-family="Arial" font-size="10.00">Score component breakdown</text>
</g>
<!-- D&#45;&gt;E -->
<g id="edge4" class="edge">
<title>D&#45;&gt;E</title>
<path fill="none" stroke="black" d="M136.38,-599.31C136.38,-591.73 136.38,-582.6 136.38,-574.04"/>
<polygon fill="black" stroke="black" points="139.88,-574.04 136.38,-564.04 132.88,-574.04 139.88,-574.04"/>
</g>
<!-- F -->
<g id="node6" class="node">
<title>F</title>
<path fill="none" stroke="black" d="M198.38,-489.5C198.38,-489.5 74.38,-489.5 74.38,-489.5 68.38,-489.5 62.38,-483.5 62.38,-477.5 62.38,-477.5 62.38,-465.5 62.38,-465.5 62.38,-459.5 68.38,-453.5 74.38,-453.5 74.38,-453.5 198.38,-453.5 198.38,-453.5 204.38,-453.5 210.38,-459.5 210.38,-465.5 210.38,-465.5 210.38,-477.5 210.38,-477.5 210.38,-483.5 204.38,-489.5 198.38,-489.5"/>
<text xml:space="preserve" text-anchor="middle" x="136.38" y="-468" font-family="Arial" font-size="10.00">Trade&#45;off and rule adjustments</text>
</g>
<!-- E&#45;&gt;F -->
<g id="edge5" class="edge">
<title>E&#45;&gt;F</title>
<path fill="none" stroke="black" d="M136.38,-526.31C136.38,-518.73 136.38,-509.6 136.38,-501.04"/>
<polygon fill="black" stroke="black" points="139.88,-501.04 136.38,-491.04 132.88,-501.04 139.88,-501.04"/>
</g>
<!-- G -->
<g id="node7" class="node">
<title>G</title>
<path fill="none" stroke="black" d="M157.12,-416.5C157.12,-416.5 115.62,-416.5 115.62,-416.5 109.62,-416.5 103.62,-410.5 103.62,-404.5 103.62,-404.5 103.62,-392.5 103.62,-392.5 103.62,-386.5 109.62,-380.5 115.62,-380.5 115.62,-380.5 157.12,-380.5 157.12,-380.5 163.12,-380.5 169.12,-386.5 169.12,-392.5 169.12,-392.5 169.12,-404.5 169.12,-404.5 169.12,-410.5 163.12,-416.5 157.12,-416.5"/>
<text xml:space="preserve" text-anchor="middle" x="136.38" y="-395" font-family="Arial" font-size="10.00">Ranked list</text>
</g>
<!-- F&#45;&gt;G -->
<g id="edge6" class="edge">
<title>F&#45;&gt;G</title>
<path fill="none" stroke="black" d="M136.38,-453.31C136.38,-445.73 136.38,-436.6 136.38,-428.04"/>
<polygon fill="black" stroke="black" points="139.88,-428.04 136.38,-418.04 132.88,-428.04 139.88,-428.04"/>
</g>
<!-- H -->
<g id="node8" class="node">
<title>H</title>
<path fill="none" stroke="black" d="M183,-343.5C183,-343.5 89.75,-343.5 89.75,-343.5 83.75,-343.5 77.75,-337.5 77.75,-331.5 77.75,-331.5 77.75,-319.5 77.75,-319.5 77.75,-313.5 83.75,-307.5 89.75,-307.5 89.75,-307.5 183,-307.5 183,-307.5 189,-307.5 195,-313.5 195,-319.5 195,-319.5 195,-331.5 195,-331.5 195,-337.5 189,-343.5 183,-343.5"/>
<text xml:space="preserve" text-anchor="middle" x="136.38" y="-322" font-family="Arial" font-size="10.00">Playlist assembly rules</text>
</g>
<!-- G&#45;&gt;H -->
<g id="edge7" class="edge">
<title>G&#45;&gt;H</title>
<path fill="none" stroke="black" d="M136.38,-380.31C136.38,-372.73 136.38,-363.6 136.38,-355.04"/>
<polygon fill="black" stroke="black" points="139.88,-355.04 136.38,-345.04 132.88,-355.04 139.88,-355.04"/>
</g>
<!-- I -->
<g id="node9" class="node">
<title>I</title>
<path fill="none" stroke="black" d="M124.48,-268.88C124.48,-268.88 16.03,-254.12 16.03,-254.12 10.08,-253.31 10.08,-251.69 16.03,-250.88 16.03,-250.88 124.48,-236.12 124.48,-236.12 130.43,-235.31 142.32,-235.31 148.27,-236.12 148.27,-236.12 256.72,-250.88 256.72,-250.88 262.67,-251.69 262.67,-253.31 256.72,-254.12 256.72,-254.12 148.27,-268.88 148.27,-268.88 142.32,-269.69 130.43,-269.69 124.48,-268.88"/>
<text xml:space="preserve" text-anchor="middle" x="136.38" y="-249" font-family="Arial" font-size="10.00">Assembly constraints satisfied?</text>
</g>
<!-- H&#45;&gt;I -->
<g id="edge8" class="edge">
<title>H&#45;&gt;I</title>
<path fill="none" stroke="black" d="M136.38,-307.31C136.38,-299.73 136.38,-290.6 136.38,-282.04"/>
<polygon fill="black" stroke="black" points="139.88,-282.04 136.38,-272.04 132.88,-282.04 139.88,-282.04"/>
</g>
<!-- J -->
<g id="node10" class="node">
<title>J</title>
<path fill="none" stroke="black" d="M88.75,-182C88.75,-182 12,-182 12,-182 6,-182 0,-176 0,-170 0,-170 0,-158 0,-158 0,-152 6,-146 12,-146 12,-146 88.75,-146 88.75,-146 94.75,-146 100.75,-152 100.75,-158 100.75,-158 100.75,-170 100.75,-170 100.75,-176 94.75,-182 88.75,-182"/>
<text xml:space="preserve" text-anchor="middle" x="50.38" y="-160.5" font-family="Arial" font-size="10.00">Final playlist output</text>
</g>
<!-- I&#45;&gt;J -->
<g id="edge9" class="edge">
<title>I&#45;&gt;J</title>
<path fill="none" stroke="black" d="M121.39,-236.43C108.73,-223.69 90.31,-205.17 75.41,-190.18"/>
<polygon fill="black" stroke="black" points="78.15,-187.97 68.61,-183.34 73.18,-192.9 78.15,-187.97"/>
<text xml:space="preserve" text-anchor="middle" x="111.2" y="-203.2" font-family="Times New Roman,serif" font-size="14.00">Yes</text>
</g>
<!-- K -->
<g id="node11" class="node">
<title>K</title>
<path fill="none" stroke="black" d="M316.12,-182C316.12,-182 130.62,-182 130.62,-182 124.62,-182 118.62,-176 118.62,-170 118.62,-170 118.62,-158 118.62,-158 118.62,-152 124.62,-146 130.62,-146 130.62,-146 316.12,-146 316.12,-146 322.12,-146 328.12,-152 328.12,-158 328.12,-158 328.12,-170 328.12,-170 328.12,-176 322.12,-182 316.12,-182"/>
<text xml:space="preserve" text-anchor="middle" x="223.38" y="-160.5" font-family="Arial" font-size="10.00">Constraint&#45;pressure record + fallback reason</text>
</g>
<!-- I&#45;&gt;K -->
<g id="edge10" class="edge">
<title>I&#45;&gt;K</title>
<path fill="none" stroke="black" d="M151.53,-236.43C164.35,-223.69 182.98,-205.17 198.05,-190.18"/>
<polygon fill="black" stroke="black" points="200.31,-192.87 204.93,-183.34 195.37,-187.91 200.31,-192.87"/>
<text xml:space="preserve" text-anchor="middle" x="195.92" y="-203.2" font-family="Times New Roman,serif" font-size="14.00">No</text>
</g>
<!-- L -->
<g id="node12" class="node">
<title>L</title>
<path fill="none" stroke="black" d="M176.25,-109C176.25,-109 96.5,-109 96.5,-109 90.5,-109 84.5,-103 84.5,-97 84.5,-97 84.5,-85 84.5,-85 84.5,-79 90.5,-73 96.5,-73 96.5,-73 176.25,-73 176.25,-73 182.25,-73 188.25,-79 188.25,-85 188.25,-85 188.25,-97 188.25,-97 188.25,-103 182.25,-109 176.25,-109"/>
<text xml:space="preserve" text-anchor="middle" x="136.38" y="-87.5" font-family="Arial" font-size="10.00">Explanation payload</text>
</g>
<!-- J&#45;&gt;L -->
<g id="edge11" class="edge">
<title>J&#45;&gt;L</title>
<path fill="none" stroke="black" d="M71.19,-145.81C81.89,-136.98 95.11,-126.07 106.84,-116.39"/>
<polygon fill="black" stroke="black" points="108.8,-119.3 114.28,-110.24 104.34,-113.91 108.8,-119.3"/>
</g>
<!-- K&#45;&gt;L -->
<g id="edge12" class="edge">
<title>K&#45;&gt;L</title>
<path fill="none" stroke="black" d="M202.31,-145.81C191.49,-136.98 178.12,-126.07 166.26,-116.39"/>
<polygon fill="black" stroke="black" points="168.68,-113.84 158.72,-110.23 164.25,-119.27 168.68,-113.84"/>
</g>
<!-- M -->
<g id="node13" class="node">
<title>M</title>
<path fill="none" stroke="black" d="M202.5,-36C202.5,-36 70.25,-36 70.25,-36 64.25,-36 58.25,-30 58.25,-24 58.25,-24 58.25,-12 58.25,-12 58.25,-6 64.25,0 70.25,0 70.25,0 202.5,0 202.5,0 208.5,0 214.5,-6 214.5,-12 214.5,-12 214.5,-24 214.5,-24 214.5,-30 208.5,-36 202.5,-36"/>
<text xml:space="preserve" text-anchor="middle" x="136.38" y="-14.5" font-family="Arial" font-size="10.00">Run&#45;level observability artefacts</text>
</g>
<!-- L&#45;&gt;M -->
<g id="edge13" class="edge">
<title>L&#45;&gt;M</title>
<path fill="none" stroke="black" d="M136.38,-72.81C136.38,-65.23 136.38,-56.1 136.38,-47.54"/>
<polygon fill="black" stroke="black" points="139.88,-47.54 136.38,-37.54 132.88,-47.54 139.88,-47.54"/>
</g>
</g>
</svg>
