<svg xmlns="http://www.w3.org/2000/svg" width="1920" height="260" viewBox="0 0 1920 260" role="img" aria-label="Figure 1.1 High-level pipeline logic">
  <style>
    .box { fill: #f7f9fc; stroke: #2f3b52; stroke-width: 2; rx: 10; ry: 10; }
    .txt { font: 18px Segoe UI, Arial, sans-serif; fill: #1f2937; }
    .cap { font: 16px Segoe UI, Arial, sans-serif; fill: #374151; }
    .arrow { stroke: #2f3b52; stroke-width: 2.5; fill: none; marker-end: url(#arrowhead); }
  </style>
  <defs>
    <marker id="arrowhead" markerWidth="10" markerHeight="7" refX="9" refY="3.5" orient="auto">
      <polygon points="0 0, 10 3.5, 0 7" fill="#2f3b52" />
    </marker>
  </defs>

  <text x="20" y="28" class="cap">Figure 1.1. High-level pipeline logic.</text>

  <rect class="box" x="20" y="70" width="240" height="70" />
  <text class="txt" x="40" y="112">Cross-source listening evidence</text>

  <rect class="box" x="300" y="70" width="250" height="70" />
  <text class="txt" x="318" y="112">Alignment and uncertainty handling</text>

  <rect class="box" x="590" y="70" width="220" height="70" />
  <text class="txt" x="635" y="112">Preference profiling</text>

  <rect class="box" x="850" y="70" width="210" height="70" />
  <text class="txt" x="890" y="112">Candidate shaping</text>

  <rect class="box" x="1100" y="70" width="220" height="70" />
  <text class="txt" x="1140" y="112">Deterministic scoring</text>

  <rect class="box" x="1360" y="70" width="190" height="70" />
  <text class="txt" x="1390" y="112">Playlist assembly</text>

  <rect class="box" x="1590" y="70" width="300" height="70" />
  <text class="txt" x="1620" y="112">Explanation and observability outputs</text>

  <path class="arrow" d="M260 105 L300 105" />
  <path class="arrow" d="M550 105 L590 105" />
  <path class="arrow" d="M810 105 L850 105" />
  <path class="arrow" d="M1060 105 L1100 105" />
  <path class="arrow" d="M1320 105 L1360 105" />
  <path class="arrow" d="M1550 105 L1590 105" />
</svg>
