<?xml version="1.0" encoding="UTF-8" standalone="no"?>
<!DOCTYPE svg PUBLIC "-//W3C//DTD SVG 1.1//EN"
 "http://www.w3.org/Graphics/SVG/1.1/DTD/svg11.dtd">
<!-- Generated by graphviz version 14.1.5 (20260411.2331)
 -->
<!-- Title: Figure_3_2_Alignment_Logic Pages: 1 -->
<svg width="448pt" height="387pt"
 viewBox="0.00 0.00 448.00 387.00" xmlns="http://www.w3.org/2000/svg" xmlns:xlink="http://www.w3.org/1999/xlink">
<g id="graph0" class="graph" transform="scale(1 1) rotate(0) translate(4 382.5)">
<title>Figure_3_2_Alignment_Logic</title>
<polygon fill="white" stroke="none" points="-4,4 -4,-382.5 444.25,-382.5 444.25,4 -4,4"/>
<!-- A -->
<g id="node1" class="node">
<title>A</title>
<path fill="none" stroke="black" d="M153.75,-378.5C153.75,-378.5 54.5,-378.5 54.5,-378.5 48.5,-378.5 42.5,-372.5 42.5,-366.5 42.5,-366.5 42.5,-354.5 42.5,-354.5 42.5,-348.5 48.5,-342.5 54.5,-342.5 54.5,-342.5 153.75,-342.5 153.75,-342.5 159.75,-342.5 165.75,-348.5 165.75,-354.5 165.75,-354.5 165.75,-366.5 165.75,-366.5 165.75,-372.5 159.75,-378.5 153.75,-378.5"/>
<text xml:space="preserve" text-anchor="middle" x="104.12" y="-357" font-family="Arial" font-size="10.00">Imported listening record</text>
</g>
<!-- B -->
<g id="node2" class="node">
<title>B</title>
<path fill="none" stroke="black" d="M92.34,-303.23C92.34,-303.23 22.57,-289.77 22.57,-289.77 16.68,-288.64 16.68,-286.36 22.57,-285.23 22.57,-285.23 92.34,-271.77 92.34,-271.77 98.23,-270.64 110.02,-270.64 115.91,-271.77 115.91,-271.77 185.68,-285.23 185.68,-285.23 191.57,-286.36 191.57,-288.64 185.68,-289.77 185.68,-289.77 115.91,-303.23 115.91,-303.23 110.02,-304.36 98.23,-304.36 92.34,-303.23"/>
<text xml:space="preserve" text-anchor="middle" x="104.12" y="-284" font-family="Arial" font-size="10.00">Required fields valid?</text>
</g>
<!-- A&#45;&gt;B -->
<g id="edge1" class="edge">
<title>A&#45;&gt;B</title>
<path fill="none" stroke="black" d="M104.12,-342.31C104.12,-334.73 104.12,-325.6 104.12,-317.04"/>
<polygon fill="black" stroke="black" points="107.63,-317.04 104.13,-307.04 100.63,-317.04 107.63,-317.04"/>
</g>
<!-- C -->
<g id="node3" class="node">
<title>C</title>
<path fill="none" stroke="black" d="M96.25,-163C96.25,-163 12,-163 12,-163 6,-163 0,-157 0,-151 0,-151 0,-139 0,-139 0,-133 6,-127 12,-127 12,-127 96.25,-127 96.25,-127 102.25,-127 108.25,-133 108.25,-139 108.25,-139 108.25,-151 108.25,-151 108.25,-157 102.25,-163 96.25,-163"/>
<text xml:space="preserve" text-anchor="middle" x="54.12" y="-147.5" font-family="Arial" font-size="10.00">Invalid record</text>
<text xml:space="preserve" text-anchor="middle" x="54.12" y="-135.5" font-family="Arial" font-size="10.00">Log exclusion reason</text>
</g>
<!-- B&#45;&gt;C -->
<g id="edge2" class="edge">
<title>B&#45;&gt;C</title>
<path fill="none" stroke="black" d="M98.39,-270.38C90.01,-246.84 74.31,-202.71 64.03,-173.85"/>
<polygon fill="black" stroke="black" points="67.42,-172.91 60.77,-164.67 60.82,-175.26 67.42,-172.91"/>
<text xml:space="preserve" text-anchor="middle" x="99.73" y="-238.2" font-family="Times New Roman,serif" font-size="14.00">No</text>
</g>
<!-- D -->
<g id="node4" class="node">
<title>D</title>
<path fill="none" stroke="black" d="M233.26,-215.19C233.26,-215.19 138.78,-200.81 138.78,-200.81 132.85,-199.9 132.85,-198.1 138.78,-197.19 138.78,-197.19 233.26,-182.81 233.26,-182.81 239.19,-181.9 251.06,-181.9 256.99,-182.81 256.99,-182.81 351.47,-197.19 351.47,-197.19 357.4,-198.1 357.4,-199.9 351.47,-200.81 351.47,-200.81 256.99,-215.19 256.99,-215.19 251.06,-216.1 239.19,-216.1 233.26,-215.19"/>
<text xml:space="preserve" text-anchor="middle" x="245.12" y="-195.5" font-family="Arial" font-size="10.00">Reliable match established?</text>
</g>
<!-- B&#45;&gt;D -->
<g id="edge4" class="edge">
<title>B&#45;&gt;D</title>
<path fill="none" stroke="black" d="M125.54,-273.36C148.77,-259.11 186.1,-236.21 212.88,-219.78"/>
<polygon fill="black" stroke="black" points="214.59,-222.84 221.28,-214.63 210.93,-216.87 214.59,-222.84"/>
<text xml:space="preserve" text-anchor="middle" x="197.38" y="-238.2" font-family="Times New Roman,serif" font-size="14.00">Yes</text>
</g>
<!-- H -->
<g id="node8" class="node">
<title>H</title>
<path fill="none" stroke="black" d="M296.75,-36C296.75,-36 95.5,-36 95.5,-36 89.5,-36 83.5,-30 83.5,-24 83.5,-24 83.5,-12 83.5,-12 83.5,-6 89.5,0 95.5,0 95.5,0 296.75,0 296.75,0 302.75,0 308.75,-6 308.75,-12 308.75,-12 308.75,-24 308.75,-24 308.75,-30 302.75,-36 296.75,-36"/>
<text xml:space="preserve" text-anchor="middle" x="196.12" y="-14.5" font-family="Arial" font-size="10.00">Alignment and uncertainty diagnostics summary</text>
</g>
<!-- C&#45;&gt;H -->
<g id="edge3" class="edge">
<title>C&#45;&gt;H</title>
<path fill="none" stroke="black" d="M53.78,-126.6C54.38,-110.91 57.6,-88.06 70.12,-73 81.66,-59.14 97.4,-48.75 113.85,-40.99"/>
<polygon fill="black" stroke="black" points="115,-44.31 122.77,-37.1 112.2,-37.89 115,-44.31"/>
</g>
<!-- E -->
<g id="node5" class="node">
<title>E</title>
<path fill="none" stroke="black" d="M176.62,-109C176.62,-109 91.62,-109 91.62,-109 85.62,-109 79.62,-103 79.62,-97 79.62,-97 79.62,-85 79.62,-85 79.62,-79 85.62,-73 91.62,-73 91.62,-73 176.62,-73 176.62,-73 182.62,-73 188.62,-79 188.62,-85 188.62,-85 188.62,-97 188.62,-97 188.62,-103 182.62,-109 176.62,-109"/>
<text xml:space="preserve" text-anchor="middle" x="134.12" y="-93.5" font-family="Arial" font-size="10.00">Matched evidence</text>
<text xml:space="preserve" text-anchor="middle" x="134.12" y="-81.5" font-family="Arial" font-size="10.00">Confidence summary</text>
</g>
<!-- D&#45;&gt;E -->
<g id="edge5" class="edge">
<title>D&#45;&gt;E</title>
<path fill="none" stroke="black" d="M229.69,-183.26C211.81,-166.19 182.05,-137.77 160.48,-117.17"/>
<polygon fill="black" stroke="black" points="163.12,-114.85 153.47,-110.47 158.29,-119.91 163.12,-114.85"/>
<text xml:space="preserve" text-anchor="middle" x="216.18" y="-139.95" font-family="Times New Roman,serif" font-size="14.00">Yes</text>
</g>
<!-- F -->
<g id="node6" class="node">
<title>F</title>
<path fill="none" stroke="black" d="M301.5,-109C301.5,-109 218.75,-109 218.75,-109 212.75,-109 206.75,-103 206.75,-97 206.75,-97 206.75,-85 206.75,-85 206.75,-79 212.75,-73 218.75,-73 218.75,-73 301.5,-73 301.5,-73 307.5,-73 313.5,-79 313.5,-85 313.5,-85 313.5,-97 313.5,-97 313.5,-103 307.5,-109 301.5,-109"/>
<text xml:space="preserve" text-anchor="middle" x="260.12" y="-93.5" font-family="Arial" font-size="10.00">Ambiguous evidence</text>
<text xml:space="preserve" text-anchor="middle" x="260.12" y="-81.5" font-family="Arial" font-size="10.00">Uncertainty marker</text>
</g>
<!-- D&#45;&gt;F -->
<g id="edge7" class="edge">
<title>D&#45;&gt;F</title>
<path fill="none" stroke="black" d="M247.54,-180.97C249.84,-164.69 253.36,-139.82 256.09,-120.52"/>
<polygon fill="black" stroke="black" points="259.52,-121.23 257.46,-110.84 252.59,-120.25 259.52,-121.23"/>
<text xml:space="preserve" text-anchor="middle" x="286.72" y="-139.95" font-family="Times New Roman,serif" font-size="14.00">Ambiguous</text>
</g>
<!-- G -->
<g id="node7" class="node">
<title>G</title>
<path fill="none" stroke="black" d="M428.25,-109C428.25,-109 344,-109 344,-109 338,-109 332,-103 332,-97 332,-97 332,-85 332,-85 332,-79 338,-73 344,-73 344,-73 428.25,-73 428.25,-73 434.25,-73 440.25,-79 440.25,-85 440.25,-85 440.25,-97 440.25,-97 440.25,-103 434.25,-109 428.25,-109"/>
<text xml:space="preserve" text-anchor="middle" x="386.12" y="-93.5" font-family="Arial" font-size="10.00">Unmatched evidence</text>
<text xml:space="preserve" text-anchor="middle" x="386.12" y="-81.5" font-family="Arial" font-size="10.00">Reason category</text>
</g>
<!-- D&#45;&gt;G -->
<g id="edge9" class="edge">
<title>D&#45;&gt;G</title>
<path fill="none" stroke="black" d="M279.74,-185.82C293.62,-180.06 309.33,-172.37 322.12,-163 339.15,-150.54 355.05,-132.94 366.75,-118.38"/>
<polygon fill="black" stroke="black" points="369.48,-120.57 372.86,-110.53 363.95,-116.27 369.48,-120.57"/>
<text xml:space="preserve" text-anchor="middle" x="367.71" y="-139.95" font-family="Times New Roman,serif" font-size="14.00">No</text>
</g>
<!-- E&#45;&gt;H -->
<g id="edge6" class="edge">
<title>E&#45;&gt;H</title>
<path fill="none" stroke="black" d="M149.13,-72.81C156.52,-64.35 165.58,-53.98 173.76,-44.61"/>
<polygon fill="black" stroke="black" points="176.32,-47 180.26,-37.17 171.05,-42.4 176.32,-47"/>
</g>
<!-- F&#45;&gt;H -->
<g id="edge8" class="edge">
<title>F&#45;&gt;H</title>
<path fill="none" stroke="black" d="M244.63,-72.81C236.93,-64.27 227.47,-53.77 218.95,-44.32"/>
<polygon fill="black" stroke="black" points="221.78,-42.24 212.49,-37.15 216.58,-46.92 221.78,-42.24"/>
</g>
<!-- G&#45;&gt;H -->
<g id="edge10" class="edge">
<title>G&#45;&gt;H</title>
<path fill="none" stroke="black" d="M339.65,-72.63C313.65,-62.92 281.04,-50.73 253.47,-40.43"/>
<polygon fill="black" stroke="black" points="254.79,-37.19 244.2,-36.97 252.34,-43.74 254.79,-37.19"/>
</g>
</g>
</svg>
